<svg id="bluesky_-_icon" data-name="bluesky - icon" xmlns="http://www.w3.org/2000/svg" width="40" height="40" viewBox="0 0 40 40">
  <g id="Rectangle_5" data-name="Rectangle 5" fill="none" stroke="rgba(255,255,255,0.59)" stroke-width="1">
    <rect width="40" height="40" rx="20" stroke="none"/>
    <rect x="0.5" y="0.5" width="39" height="39" rx="19.5" fill="none"/>
  </g>
  <path id="Bluesky_Logo" d="M13.475,10.606a18.783,18.783,0,0,1,4.545,5.685,18.785,18.785,0,0,1,4.545-5.685c1.328-1,3.478-1.768,3.478.686,0,.49-.281,4.117-.446,4.705-.573,2.047-2.66,2.569-4.517,2.253,3.245.552,4.071,2.382,2.288,4.212-3.386,3.475-4.867-.872-5.247-1.986-.07-.2-.1-.3-.1-.218,0-.081-.033.014-.1.218-.379,1.114-1.86,5.461-5.247,1.986-1.783-1.83-.957-3.659,2.288-4.212-1.857.316-3.944-.206-4.517-2.253-.165-.589-.446-4.215-.446-4.705,0-2.454,2.151-1.683,3.478-.686Z" transform="translate(1.98 3.28)" fill="#fff"/>
</svg>
