<svg xmlns="http://www.w3.org/2000/svg" width="138.431" height="44.768" viewBox="0 0 138.431 44.768">
  <g id="BMD_-_logo_white" data-name="BMD - logo white" transform="translate(-21.973 -21.282)">
    <g id="Group_23" data-name="Group 23" transform="translate(21.973 21.282)">
      <path id="Path_47474" data-name="Path 47474" d="M37.549,122.491a3.666,3.666,0,0,1,1.21,2.743v6.588a.387.387,0,0,1-.645.269,11.658,11.658,0,0,1-2.581-3.388,5.5,5.5,0,0,0-1.586-2.2,5.828,5.828,0,0,0-2.366-1.344,10.841,10.841,0,0,1-4.248-2.447,10.672,10.672,0,0,1-2.877-3.98,5.5,5.5,0,0,0-1.586-2.2,2.686,2.686,0,0,1-.054-3.953,2.741,2.741,0,0,1,3.738.054,10.559,10.559,0,0,1,2.77,3.872,5.5,5.5,0,0,0,1.586,2.2,5.828,5.828,0,0,0,2.366,1.344,10.84,10.84,0,0,1,4.248,2.447h0Z" transform="translate(-21.973 -87.504)" fill="#fff"/>
      <path id="Path_47475" data-name="Path 47475" d="M40.247,81.6a4.768,4.768,0,0,1,1.586,3.576v5.889a2.872,2.872,0,0,1-.968-.538,12.5,12.5,0,0,1-2.581-3.012,8.152,8.152,0,0,0-1.613-1.909,7.579,7.579,0,0,0-2.1-1.371,13.6,13.6,0,0,1-3.307-2.178,12.5,12.5,0,0,1-2.581-3.012,7.3,7.3,0,0,0-1.64-1.909A2.686,2.686,0,1,1,30.594,73.1a12.5,12.5,0,0,1,2.581,3.012,7.3,7.3,0,0,0,1.64,1.909,7.517,7.517,0,0,0,2.07,1.371,13.6,13.6,0,0,1,3.307,2.178h0Z" transform="translate(-25.021 -58.686)" fill="#fff"/>
      <path id="Path_47476" data-name="Path 47476" d="M55.707,54.173V60.6a2.784,2.784,0,0,1-.78-.511,20.922,20.922,0,0,1-1.613-1.64c-.323-.35-.618-.672-1.291-1.291a14.967,14.967,0,0,0-1.4-1.183A19.006,19.006,0,0,1,48.877,54.5a20.926,20.926,0,0,1-1.613-1.64,14.185,14.185,0,0,0-1.291-1.291,2.683,2.683,0,1,1,3.657-3.926,20.923,20.923,0,0,1,1.613,1.64,14.186,14.186,0,0,0,1.291,1.291,14.967,14.967,0,0,0,1.4,1.183c.3.215.592.484,1.049.86.242.565.484,1.049.726,1.586Z" transform="translate(-38.894 -40.024)" fill="#fff"/>
      <path id="Path_47477" data-name="Path 47477" d="M71.4,22.308v7.663a3.241,3.241,0,0,1-.7-.538L67.313,25.8a2.683,2.683,0,0,1,3.926-3.657Z" transform="translate(-54.587 -21.282)" fill="#fff"/>
      <path id="Path_47478" data-name="Path 47478" d="M112.384,51.681a2.354,2.354,0,0,0-3.28,0,2.285,2.285,0,0,0-.484,2.554.737.737,0,0,1-.161.834l-2.5,2.5a.737.737,0,0,1-.834.161,2.309,2.309,0,0,0-3.038,3.038.737.737,0,0,1-.161.834l-2.5,2.5a.737.737,0,0,1-.834.161,2.277,2.277,0,0,0-2.554.484,2.31,2.31,0,1,0,3.738.726.7.7,0,0,1,.161-.834l2.5-2.5a.737.737,0,0,1,.834-.161,2.309,2.309,0,0,0,3.038-3.038.7.7,0,0,1,.161-.834l2.5-2.5a.786.786,0,0,1,.834-.161,2.277,2.277,0,0,0,2.554-.484,2.354,2.354,0,0,0,0-3.28Zm0-13.068a2.315,2.315,0,0,0-3.764,2.554.737.737,0,0,1-.161.834l-2.5,2.5a.737.737,0,0,1-.834.161,2.309,2.309,0,0,0-3.038,3.038.737.737,0,0,1-.161.834l-2.5,2.5a.737.737,0,0,1-.834.161,2.277,2.277,0,0,0-2.554.484,2.31,2.31,0,1,0,3.738.726.7.7,0,0,1,.161-.834l2.5-2.5a.7.7,0,0,1,.834-.161,2.309,2.309,0,0,0,3.038-3.038.7.7,0,0,1,.161-.834l2.5-2.5a.786.786,0,0,1,.834-.161,2.277,2.277,0,0,0,2.554-.484,2.321,2.321,0,0,0,0-3.254Zm-12.4-11.67v-.215h0a.506.506,0,0,0-.054-.215c0-.081-.054-.134-.081-.215v-.054a.229.229,0,0,0-.081-.134,2.713,2.713,0,0,0-.4-.565,1.437,1.437,0,0,0-.35-.3.674.674,0,0,0-.188-.108c-.134-.054-.242-.108-.376-.161h-.027a.633.633,0,0,1-.215-.054A.592.592,0,0,1,98,24.9h-.215a1.258,1.258,0,0,0-.457.054h-.108a9963.259,9963.259,0,0,1-.323.081c-.081.027-.161.081-.242.108a.943.943,0,0,0-.215.134,1.17,1.17,0,0,0-.188.161c-.027.027-.081.054-.108.108s-.054.054-.054.054h0a.482.482,0,0,0-.134.188.586.586,0,0,0-.134.215,1.583,1.583,0,0,0-.108.215l-.081.242a2.923,2.923,0,0,0-.108.7,2.312,2.312,0,0,0,2.312,2.312c1.291,0,.914-.161,1.291-.4.054-.054.134-.081.188-.134a.628.628,0,0,0,.188-.188,2.847,2.847,0,0,0,.269-.323,1.169,1.169,0,0,0,.108-.188.955.955,0,0,0,.108-.242c0-.054.054-.134.054-.188a.633.633,0,0,1,.054-.215.592.592,0,0,1,.027-.215v-.457Zm5.862,5.136a2.3,2.3,0,0,0-3.738,2.554.737.737,0,0,1-.161.834l-2.5,2.5a.737.737,0,0,1-.834.161h-.054c-.054,0-.134-.054-.188-.054a2,2,0,0,0-.7-.108,1.055,1.055,0,0,0-.457.054.507.507,0,0,0-.215.054c-.081,0-.134.054-.215.081a1.364,1.364,0,0,0-.43.242h0a2.858,2.858,0,0,0-.3.242,2.266,2.266,0,0,0-.565.941,2.923,2.923,0,0,0-.108.7A2.312,2.312,0,0,0,97.7,42.593c1.291,0,.914-.161,1.291-.4a2.111,2.111,0,0,0,.645-.645,1.169,1.169,0,0,0,.108-.188.955.955,0,0,0,.108-.242c0-.054.054-.134.054-.188a2.7,2.7,0,0,0,.108-.672v-.242a1.7,1.7,0,0,0-.188-.7h0a.741.741,0,0,1,.161-.807l2.5-2.5a.786.786,0,0,1,.834-.161,2.3,2.3,0,0,0,2.554-3.738Zm-1.721,20.032a1.291,1.291,0,0,0-1.291,1.291,1.291,1.291,0,1,0,1.291-1.291Zm-6.8,6.749a1.586,1.586,0,1,0,1.586,1.586A1.572,1.572,0,0,0,97.326,58.861Zm.565-26.217A1.291,1.291,0,0,0,96.6,33.935a1.291,1.291,0,1,0,1.291-1.291Zm-.565,12.692a1.586,1.586,0,1,0,1.586,1.586A1.572,1.572,0,0,0,97.326,45.336Zm6.615-5.942a1.291,1.291,0,0,0-1.291,1.291,1.291,1.291,0,1,0,1.291-1.291Z" transform="translate(-75.62 -23.927)" fill="#fff" fill-rule="evenodd"/>
    </g>
    <g id="Group_25" data-name="Group 25" transform="translate(64.761 28.084)">
      <path id="Path_47500" data-name="Path 47500" d="M199.546,46.112a7.892,7.892,0,0,0,3.334-2.2,6.953,6.953,0,0,0,1.721-4.813,8.127,8.127,0,0,0-2.716-5.969c-1.8-1.425-4.41-2.124-7.771-2.124H181.1V62.164h13.579c3.388,0,6.023-.753,7.905-2.232a7.66,7.66,0,0,0,2.8-6.4c0-2.77-.645-3.926-1.909-5.27a7.9,7.9,0,0,0-3.953-2.178ZM185.59,34.522h7.825a8.29,8.29,0,0,1,5.055,1.291,4.4,4.4,0,0,1,1.667,3.764,4.473,4.473,0,0,1-1.667,3.764,8.236,8.236,0,0,1-5.055,1.291H185.59V34.549ZM199.142,57.4a8.712,8.712,0,0,1-4.921,1.183H185.59V48.155h8.631a8.874,8.874,0,0,1,4.921,1.183,4.54,4.54,0,0,1,1.8,4.033A4.478,4.478,0,0,1,199.142,57.4Z" transform="translate(-181.1 -31)" fill="#fff"/>
      <path id="Path_47501" data-name="Path 47501" d="M309.407,56.6,298.033,31H294V62.164h4.222V40.572l9.707,21.592h2.877l9.788-21.7v21.7h4.141V31h-3.98Z" transform="translate(-263.642 -31)" fill="#fff"/>
      <path id="Path_47502" data-name="Path 47502" d="M461.222,38.1a12.43,12.43,0,0,0-5.539-5.3,19.818,19.818,0,0,0-8.9-1.8H436V62.164h10.782a19.81,19.81,0,0,0,8.9-1.828,12.627,12.627,0,0,0,5.539-5.324,17.486,17.486,0,0,0,1.882-8.443,17.523,17.523,0,0,0-1.882-8.47Zm-5.754,17.316c-1.963,1.936-4.948,2.931-8.954,2.931H440.6v-23.5h5.916q6.01,0,8.954,2.9c1.963,1.936,2.931,4.867,2.931,8.82S457.43,53.479,455.468,55.415Z" transform="translate(-367.46 -31)" fill="#fff"/>
    </g>
  </g>
</svg>
