<svg xmlns="http://www.w3.org/2000/svg" xmlns:xlink="http://www.w3.org/1999/xlink" width="107.128" height="45.522" viewBox="0 0 107.128 45.522">
  <defs>
    <linearGradient id="linear-gradient" x1="0.501" y1="-1.083" x2="0.501" y2="0.697" gradientUnits="objectBoundingBox">
      <stop offset="0" stop-color="#29b473"/>
      <stop offset="1" stop-color="#0086af"/>
    </linearGradient>
    <linearGradient id="linear-gradient-2" x1="0.499" y1="-0.659" x2="0.499" y2="1.357" xlink:href="#linear-gradient"/>
    <linearGradient id="linear-gradient-3" x1="0.498" y1="-0.401" x2="0.498" y2="2.348" xlink:href="#linear-gradient"/>
    <linearGradient id="linear-gradient-4" x1="0.503" y1="0.165" x2="0.503" y2="4.498" xlink:href="#linear-gradient"/>
    <linearGradient id="linear-gradient-5" x1="0.497" y1="0.009" x2="0.497" y2="0.87" xlink:href="#linear-gradient"/>
  </defs>
  <g id="BMD-logo" transform="translate(-17.336 -31.095)">
    <g id="Group_39" data-name="Group 39" transform="translate(60.906 43.496)">
      <g id="Group_38" data-name="Group 38" transform="translate(0 0)">
        <path id="Path_47524" data-name="Path 47524" d="M177.148,40.748a5.5,5.5,0,0,0,2.23-1.457,4.632,4.632,0,0,0,1.159-3.211,5.357,5.357,0,0,0-1.813-3.984,8.181,8.181,0,0,0-5.173-1.4H164.9V51.42h9.037a8.332,8.332,0,0,0,5.262-1.486,5.1,5.1,0,0,0,1.873-4.251,4.251,4.251,0,0,0-1.278-3.508,5.583,5.583,0,0,0-2.646-1.457Zm-9.275-7.7h5.2a5.534,5.534,0,0,1,3.359.862,3.325,3.325,0,0,1,0,4.994,5.534,5.534,0,0,1-3.359.862h-5.2V33.048Zm9.007,15.221a5.783,5.783,0,0,1-3.27.8h-5.737V42.145h5.737a5.717,5.717,0,0,1,3.27.8,2.967,2.967,0,0,1,1.189,2.675A2.967,2.967,0,0,1,176.88,48.3Z" transform="translate(-164.9 -30.7)" fill="#29b473"/>
        <path id="Path_47525" data-name="Path 47525" d="M243.026,47.734,235.475,30.7H232.8V51.42h2.794V37.062l6.451,14.358h1.932L250.458,37V51.42h2.765V30.7h-2.646Z" transform="translate(-212.615 -30.7)" fill="#29b473"/>
        <path id="Path_47526" data-name="Path 47526" d="M334.866,35.427a8.11,8.11,0,0,0-3.686-3.508,13.192,13.192,0,0,0-5.916-1.219H318.1V51.42h7.164A13.192,13.192,0,0,0,331.18,50.2a8.322,8.322,0,0,0,3.686-3.538,11.709,11.709,0,0,0,1.249-5.619,11.628,11.628,0,0,0-1.249-5.619Zm-3.805,11.5c-1.308,1.308-3.3,1.932-5.946,1.932h-3.954V33.257h3.954c2.675,0,4.638.654,5.946,1.932s1.962,3.24,1.962,5.856S332.369,45.623,331.061,46.931Z" transform="translate(-272.557 -30.7)" fill="#29b473"/>
      </g>
    </g>
    <g id="Group_40" data-name="Group 40" transform="translate(17.336 31.095)">
      <path id="Path_47527" data-name="Path 47527" d="M33.17,125.21A3.828,3.828,0,0,1,34.419,128v6.689a.386.386,0,0,1-.654.268,11.087,11.087,0,0,1-2.616-3.448,5.921,5.921,0,0,0-1.605-2.259,5.6,5.6,0,0,0-2.408-1.367,11.3,11.3,0,0,1-4.34-2.467,10.891,10.891,0,0,1-2.943-4.043,5.709,5.709,0,0,0-1.605-2.259,2.726,2.726,0,0,1-.059-4.013,2.8,2.8,0,0,1,3.805.059,10.581,10.581,0,0,1,2.824,3.954,5.709,5.709,0,0,0,1.605,2.259,5.6,5.6,0,0,0,2.408,1.367,11.3,11.3,0,0,1,4.34,2.467h0Z" transform="translate(-17.336 -89.624)" fill="url(#linear-gradient)"/>
      <path id="Path_47528" data-name="Path 47528" d="M35.586,87.421a4.845,4.845,0,0,1,1.605,3.627v6a2.724,2.724,0,0,1-.981-.565,13.78,13.78,0,0,1-2.616-3.062,8.37,8.37,0,0,0-1.635-1.932,7.683,7.683,0,0,0-2.111-1.4,14.551,14.551,0,0,1-5.975-5.292,7.408,7.408,0,0,0-1.665-1.932,2.738,2.738,0,0,1,3.627-4.1,12.994,12.994,0,0,1,2.616,3.062,7.408,7.408,0,0,0,1.665,1.932,7.271,7.271,0,0,0,2.111,1.4,12.162,12.162,0,0,1,3.359,2.23h0Z" transform="translate(-20.109 -64.113)" fill="url(#linear-gradient-2)"/>
      <path id="Path_47529" data-name="Path 47529" d="M49.418,62.159V68.7a2.672,2.672,0,0,1-.773-.505,19.407,19.407,0,0,1-1.635-1.665A17.519,17.519,0,0,0,45.7,65.221a14,14,0,0,0-1.427-1.189,18.9,18.9,0,0,1-1.784-1.516,19.408,19.408,0,0,1-1.635-1.665,16.632,16.632,0,0,0-1.308-1.338A2.735,2.735,0,0,1,43.265,55.5,19.41,19.41,0,0,1,44.9,57.165,16.632,16.632,0,0,0,46.208,58.5a14,14,0,0,0,1.427,1.189c.3.238.624.476,1.07.862.268.565.476,1.07.743,1.635Z" transform="translate(-32.336 -47.74)" fill="url(#linear-gradient-3)"/>
      <path id="Path_47530" data-name="Path 47530" d="M63.2,32.137v7.789a3.2,3.2,0,0,1-.713-.535L59.04,35.7a2.734,2.734,0,1,1,3.984-3.746l.149.178Z" transform="translate(-46.119 -31.095)" fill="url(#linear-gradient-4)"/>
      <path id="Path_47531" data-name="Path 47531" d="M102.254,61.8a2.347,2.347,0,0,0-3.805,2.616.83.83,0,0,1-.149.862l-2.527,2.527a.726.726,0,0,1-.862.149,2.385,2.385,0,0,0-2.616.476,2.333,2.333,0,0,0-.476,2.616.83.83,0,0,1-.149.862l-2.527,2.527a.726.726,0,0,1-.862.149,2.385,2.385,0,0,0-2.616.476A2.354,2.354,0,0,0,89,78.389a2.4,2.4,0,0,0,.505-2.616.83.83,0,0,1,.149-.862l2.527-2.527a.726.726,0,0,1,.862-.149,2.357,2.357,0,0,0,3.121-3.092.83.83,0,0,1,.149-.862l2.527-2.527a.726.726,0,0,1,.862-.149,2.385,2.385,0,0,0,2.616-.476,2.35,2.35,0,0,0,0-3.329Zm0-13.288a2.347,2.347,0,0,0-3.805,2.616.83.83,0,0,1-.149.862l-2.527,2.527a.726.726,0,0,1-.862.149,2.385,2.385,0,0,0-2.616.476,2.333,2.333,0,0,0-.476,2.616.83.83,0,0,1-.149.862l-2.527,2.527a.726.726,0,0,1-.862.149,2.385,2.385,0,0,0-2.616.476A2.354,2.354,0,0,0,89,65.1a2.4,2.4,0,0,0,.505-2.616.83.83,0,0,1,.149-.862L92.177,59.1a.726.726,0,0,1,.862-.149,2.343,2.343,0,0,0,2.616-.505,2.4,2.4,0,0,0,.505-2.616.83.83,0,0,1,.149-.862l2.527-2.527a.726.726,0,0,1,.862-.149,2.364,2.364,0,0,0,2.616-3.835ZM89.65,36.651v-.208h0a.43.43,0,0,0-.059-.208.63.63,0,0,0-.089-.208v-.059c0-.059-.059-.089-.059-.149a2.517,2.517,0,0,0-.416-.565,3.148,3.148,0,0,0-.357-.3,1.293,1.293,0,0,0-.208-.119,2.064,2.064,0,0,0-.386-.149h-.03a.551.551,0,0,1-.208-.059.506.506,0,0,1-.208-.03H87.42a1.309,1.309,0,0,0-.476.059h-.119a.179.179,0,0,0-.119.03.225.225,0,0,0-.119.03.109.109,0,0,0-.089.03.89.89,0,0,0-.238.119.9.9,0,0,0-.208.149c-.059.059-.149.089-.208.149-.03.03-.089.059-.119.089l-.059.059h0c-.059.059-.089.119-.149.178s-.089.149-.149.208c-.03.089-.089.149-.119.238s-.059.149-.089.238a2.534,2.534,0,0,0-.089.684,2.335,2.335,0,0,0,2.348,2.348c1.308,0,.951-.149,1.308-.386a.788.788,0,0,0,.178-.149c.059-.059.149-.119.208-.178a3.159,3.159,0,0,0,.268-.327c.03-.059.089-.119.119-.178.03-.089.089-.149.119-.238a.423.423,0,0,1,.059-.178.551.551,0,0,1,.059-.208.506.506,0,0,1,.03-.208v-.446Zm5.946,5.2A2.347,2.347,0,0,0,91.79,44.47a.83.83,0,0,1-.149.862l-2.527,2.527a.726.726,0,0,1-.862.149h-.059c-.059,0-.119-.059-.178-.059a2.533,2.533,0,0,0-.684-.119,1.089,1.089,0,0,0-.476.059.7.7,0,0,0-.238.059.629.629,0,0,0-.208.089,3.249,3.249,0,0,0-.446.238h0a2.6,2.6,0,0,0-.3.238,2.088,2.088,0,0,0-.565.951,2.534,2.534,0,0,0-.089.684A2.335,2.335,0,0,0,87.361,52.5c1.308,0,.951-.149,1.308-.386a2.284,2.284,0,0,0,.654-.654c.03-.059.089-.119.119-.178.03-.089.089-.149.119-.238a.422.422,0,0,1,.059-.178,2.534,2.534,0,0,0,.089-.684v-.238a2.1,2.1,0,0,0-.178-.713h0a.779.779,0,0,1,.149-.832l2.527-2.527a.726.726,0,0,1,.862-.149,2.364,2.364,0,0,0,2.616-3.835ZM93.841,62.247a1.308,1.308,0,1,0,0,2.616,1.308,1.308,0,1,0,0-2.616Zm-6.9,6.867a1.605,1.605,0,1,0,1.605,1.605A1.6,1.6,0,0,0,86.944,69.114Zm.565-26.666a1.308,1.308,0,1,0,1.308,1.308A1.32,1.32,0,0,0,87.509,42.448ZM86.944,55.32a1.605,1.605,0,1,0,1.605,1.605A1.6,1.6,0,0,0,86.944,55.32Zm6.718-6a1.308,1.308,0,1,0,1.308,1.308A1.32,1.32,0,0,0,93.663,49.315Z" transform="translate(-64.868 -33.558)" fill-rule="evenodd" fill="url(#linear-gradient-5)"/>
    </g>
  </g>
</svg>
