<svg xmlns="http://www.w3.org/2000/svg" width="18" height="17" viewBox="0 0 18 17" fill="none">
  <path d="M9.48099 12.4284C9.35711 12.5639 9.18205 12.641 8.99845 12.641C8.81485 12.641 8.6398 12.5639 8.51591 12.4284L5.02872 8.61429C4.78505 8.34778 4.80357 7.93421 5.07007 7.69054C5.33659 7.44687 5.75016 7.46535 5.99383 7.73186L8.34461 10.303V0.653846C8.34461 0.29274 8.63735 0 8.99845 0C9.35955 0 9.6523 0.29274 9.6523 0.653846V10.303L12.0031 7.73186C12.2468 7.46535 12.6603 7.44687 12.9268 7.69054C13.1934 7.93421 13.2118 8.34778 12.9682 8.61429L9.48099 12.4284Z" fill="white"/>
  <path d="M1.80769 11.1155C1.80769 10.7544 1.51496 10.4617 1.15385 10.4617C0.79274 10.4617 0.5 10.7544 0.5 11.1155V11.1634C0.499983 12.3556 0.499966 13.3166 0.601582 14.0725C0.707087 14.8572 0.932786 15.5178 1.45754 16.0426C1.98229 16.5674 2.64299 16.7931 3.42771 16.8986C4.18353 17.0001 5.14452 17.0001 6.33678 17.0001H11.6632C12.8555 17.0001 13.8165 17.0001 14.5723 16.8986C15.357 16.7931 16.0177 16.5674 16.5425 16.0426C17.0672 15.5178 17.2929 14.8572 17.3984 14.0725C17.5 13.3166 17.5 12.3556 17.5 11.1634V11.1155C17.5 10.7544 17.2073 10.4617 16.8462 10.4617C16.4851 10.4617 16.1923 10.7544 16.1923 11.1155C16.1923 12.3669 16.1909 13.2396 16.1024 13.8982C16.0164 14.5379 15.8591 14.8766 15.6178 15.1179C15.3765 15.3592 15.0378 15.5165 14.3981 15.6026C13.7395 15.691 12.8668 15.6924 11.6154 15.6924H6.38462C5.13323 15.6924 4.26046 15.691 3.60195 15.6026C2.96225 15.5165 2.62349 15.3592 2.38221 15.1179C2.14094 14.8766 1.98362 14.5379 1.89762 13.8982C1.80908 13.2396 1.80769 12.3669 1.80769 11.1155Z" fill="white"/>
</svg>