<svg xmlns="http://www.w3.org/2000/svg" width="24" height="24" viewBox="0 0 24 24" fill="none">
  <path fill-rule="evenodd" clip-rule="evenodd" d="M12 2C6.477 2 2 6.477 2 12c0 4.418 2.865 8.166 6.839 9.49.5.09.682-.217.682-.483 0-.237-.009-.866-.014-1.7-2.782.604-3.369-1.342-3.369-1.342-.454-1.155-1.11-1.463-1.11-1.463-.908-.62.069-.607.069-.607 1.003.07 1.53 1.029 1.53 1.029.892 1.529 2.341 1.087 2.91.832.091-.646.35-1.087.636-1.337-2.22-.253-4.555-1.11-4.555-4.943 0-1.091.39-1.985 1.029-2.683-.103-.253-.446-1.27.098-2.646 0 0 .84-.269 2.75 1.025A9.563 9.563 0 0 1 12 6.845c.85.004 1.705.115 2.504.337 1.909-1.294 2.748-1.025 2.748-1.025.546 1.376.203 2.393.1 2.646.64.698 1.028 1.592 1.028 2.683 0 3.842-2.338 4.687-4.566 4.936.359.309.679.92.679 1.855 0 1.338-.012 2.418-.012 2.746 0 .268.18.577.688.479A10.004 10.004 0 0 0 22 12c0-5.523-4.477-10-10-10Z" fill="white"/>
</svg>

