<svg xmlns="http://www.w3.org/2000/svg" width="18" height="18" viewBox="0 0 18 18" fill="none">
  <path fill-rule="evenodd" clip-rule="evenodd" d="M4.38354 17.077H0.921997V6.69238H4.38354V17.077Z" fill="white"/>
  <path fill-rule="evenodd" clip-rule="evenodd" d="M2.64272 4.38439H2.62305C1.59006 4.38439 0.922241 3.6148 0.922241 2.65302C0.922241 1.6709 1.6104 0.922852 2.663 0.922852C3.7156 0.922852 4.36381 1.6709 4.38378 2.65302C4.38378 3.6148 3.7156 4.38439 2.64272 4.38439Z" fill="white"/>
  <path fill-rule="evenodd" clip-rule="evenodd" d="M17.0778 17.0767H13.6764V11.6486C13.6764 10.2851 13.1841 9.35475 11.9527 9.35475C11.013 9.35475 10.4532 9.98196 10.2074 10.5878C10.1174 10.8049 10.0954 11.1073 10.0954 11.4106V17.077H6.69336C6.69336 17.077 6.73819 7.88296 6.69336 6.9309H10.0954V8.36801C10.5468 7.67717 11.3554 6.69238 13.1615 6.69238C15.3999 6.69238 17.078 8.14283 17.078 11.2593L17.0778 17.0767Z" fill="white"/>
</svg>