<svg id="linkedIn_-_icon" data-name="linkedIn - icon" xmlns="http://www.w3.org/2000/svg" width="40" height="40" viewBox="0 0 40 40">
  <g id="Rectangle_3" data-name="Rectangle 3" fill="none" stroke="rgba(255,255,255,0.59)" stroke-width="1">
    <rect width="40" height="40" rx="20" stroke="none"/>
    <rect x="0.5" y="0.5" width="39" height="39" rx="19.5" fill="none"/>
  </g>
  <path id="Icon_awesome-linkedin-in" data-name="Icon awesome-linkedin-in" d="M3.387,15.13H.25V5.029H3.387ZM1.817,3.651A1.825,1.825,0,1,1,3.633,1.817,1.832,1.832,0,0,1,1.817,3.651ZM15.126,15.13H12V10.213c0-1.172-.024-2.675-1.631-2.675-1.631,0-1.881,1.273-1.881,2.59v5H5.351V5.029H8.36V6.407H8.4a3.3,3.3,0,0,1,2.968-1.631c3.174,0,3.758,2.09,3.758,4.806V15.13Z" transform="translate(12.435 11.935)" fill="#fff"/>
</svg>
