<svg width="17" height="18" viewBox="0 0 17 18" fill="none" xmlns="http://www.w3.org/2000/svg">
<path d="M10.8631 13.1437V13.954C10.8631 15.2967 9.77478 16.385 8.43216 16.385C7.08954 16.385 6.0012 15.2967 6.0012 13.954V13.1437M10.8631 13.1437H6.0012M10.8631 13.1437H13.7726C14.0825 13.1437 14.2383 13.1437 14.3638 13.1014C14.6036 13.0206 14.7912 12.8322 14.872 12.5925C14.9145 12.4665 14.9145 12.3103 14.9145 11.9979C14.9145 11.8612 14.9143 11.7928 14.9036 11.7276C14.8834 11.6044 14.8356 11.4877 14.7629 11.3863C14.7244 11.3327 14.6754 11.2839 14.5791 11.1875L14.2635 10.8718C14.1616 10.77 14.1044 10.6318 14.1044 10.4878V7.47149C14.1044 4.33879 11.5649 1.79924 8.43216 1.79924C5.29947 1.79925 2.75992 4.3388 2.75992 7.47149V10.4878C2.75992 10.6319 2.70258 10.77 2.60075 10.8718L2.28512 11.1875C2.18846 11.2841 2.14006 11.3327 2.10153 11.3863C2.02873 11.4878 1.98051 11.6044 1.96029 11.7276C1.9496 11.7928 1.9496 11.8612 1.9496 11.9979C1.9496 12.3103 1.9496 12.4665 1.9921 12.5925C2.07297 12.8322 2.26141 13.0206 2.50115 13.1014C2.62667 13.1437 2.78181 13.1437 3.09179 13.1437H6.0012M13.3092 1C14.4268 1.84218 15.3072 2.95944 15.8647 4.24296M3.55563 1C2.43802 1.84218 1.55757 2.95944 1 4.24296" stroke="white" stroke-width="1.4" stroke-linecap="round" stroke-linejoin="round"/>
</svg>
