<svg xmlns="http://www.w3.org/2000/svg" width="22" height="16" viewBox="0 0 22 16" fill="none">
  <path d="M8.74924 11.375V4.62732L14.4992 8.00151L8.74924 11.375ZM21.5386 2.50322C21.279 1.51873 20.5455 0.757473 19.6132 0.488082L19.5934 0.483541C17.2513 0.176315 14.5425 0.000756661 11.7933 0.000756661C11.5138 0.000756661 11.2351 0.00227007 10.9571 0.00605365L10.9996 0.00529699C10.7634 0.00227012 10.4854 0 10.206 0C7.45681 0 4.74651 0.175558 2.08609 0.515323L2.40443 0.482028C1.45307 0.756716 0.719568 1.51722 0.465042 2.48203L0.460641 2.5017C0.167239 4.09762 0 5.93417 0 7.81082C0 7.87741 3.42419e-08 7.944 0.000733539 8.00984V7.99924C0.000733539 8.05524 0 8.12183 0 8.18842C0 10.0651 0.167973 11.9009 0.488514 13.6814L0.460641 13.4968C0.720301 14.4813 1.45381 15.2425 2.38609 15.5119L2.40589 15.5165C4.74797 15.8237 7.45681 15.9992 10.206 15.9992C10.4847 15.9992 10.7634 15.9977 11.0422 15.9939L10.9996 15.9947C11.2358 15.9977 11.5146 16 11.7933 16C14.5432 16 17.2528 15.8244 19.9132 15.4847L19.5948 15.518C20.5469 15.244 21.2804 14.4828 21.5357 13.518L21.5401 13.4983C21.8328 11.9024 22 10.0658 22 8.18994C22 8.12335 22 8.05675 21.9993 7.99092V8.00076C21.9993 7.94476 22 7.87817 22 7.81158C22 5.93492 21.832 4.09913 21.5115 2.31858L21.5386 2.50322Z" fill="white"/>
</svg>